<svg xmlns="http://www.w3.org/2000/svg" viewBox="0 0 64 64">
  <defs>
    <linearGradient id="g" x1="0" x2="1" y1="0" y2="1">
      <stop offset="0" stop-color="#8B5CF6" />
      <stop offset="1" stop-color="#C8A145" />
    </linearGradient>
  </defs>
  <rect width="64" height="64" rx="14" fill="#0B0B1A" />
  <circle cx="32" cy="32" r="26" fill="url(#g)" opacity="0.45" />
  <path
    d="M44 22c-3.2-4.3-8.6-6-14-6-8.4 0-14.5 4.1-14.5 10.8 0 6.1 4.7 8.8 9.8 10.2 4.4 1.2 9.4 2.3 9.4 6.1 0 3.6-3.4 5.6-7.2 5.6-4.5 0-8.3-2-10.9-5.3l-4 3.6c3.6 4.8 9.3 7.4 15.1 7.4 8.5 0 14.2-4.2 14.2-11.1 0-6.3-4.9-8.8-10.1-10.2-4.1-1.1-9-2.3-9-5.8 0-3.4 3.1-5.1 6.7-5.1 3.5 0 6.4 1.7 8.5 4.6L44 22z"
    fill="#F7F4FF"
  />
</svg>
